<svg xmlns="http://www.w3.org/2000/svg" viewBox="0 0 32 32">
  <rect width="32" height="32" rx="6" fill="#050505"/>
  <path transform="matrix(0.012685, 0, 0, -0.012685, 7.9514, 25.0000)" fill="#e4e4e7" d="M1181 1363Q1236 1333 1267.0 1283.5Q1298 1234 1298 1168Q1298 1077 1262.0 1008.0Q1226 939 1168 892Q1109 844 1034.5 812.5Q960 781 884 766V757Q942 750 1004.0 729.5Q1066 709 1116 675Q1169 640 1202.5 584.5Q1236 529 1236 453Q1236 340 1183.5 253.5Q1131 167 1051 113Q965 55 866.5 27.5Q768 0 664 0H-29L-13 66Q11 68 59.0 74.5Q107 81 128 90Q163 104 181.5 128.5Q200 153 208 188L445 1218Q447 1228 448.5 1237.5Q450 1247 450 1257Q450 1278 441.5 1293.5Q433 1309 412 1320Q383 1336 350.5 1343.5Q318 1351 290 1353L306 1419H932Q1003 1419 1064.5 1406.5Q1126 1394 1181 1363ZM969 902Q1016 957 1036.5 1018.5Q1057 1080 1057 1158Q1057 1211 1038.0 1248.0Q1019 1285 986 1307Q953 1328 913.0 1336.5Q873 1345 829 1345Q796 1345 755.5 1343.5Q715 1342 687 1341L560 789H685Q783 789 854.5 820.0Q926 851 969 902ZM904 216Q947 275 969.0 345.0Q991 415 991 483Q991 590 919.0 651.0Q847 712 717 712Q654 712 609.0 710.5Q564 709 541 708L428 219Q425 205 423.5 193.0Q422 181 422 170Q422 118 475.0 95.0Q528 72 610 72Q711 72 785.5 113.5Q860 155 904 216Z"/>
</svg>
